PathFileType	4	(X/Y/Z)	Patient4_TMGait_0pt5_02_right_37.trc.trc
DataRate	CameraRate	NumFrames	NumMarkers	Units	OrigDataRate	OrigDataStartFrame	OrigNumFrames
74.468085106383	74.468085106383	4	33	mm	74.468085106383	53	       141
Frame#	Time	Sacral			L.Shoulder			Chest			R.Shoulder			Neck			R.ASIS			L.ASIS			R.Thigh.Superior			R.Thigh.Lateral			R.Thigh.Inferior			R.Patella			L.Thigh.Superior			L.Thigh.Lateral			L.Thigh.Inferior			L.Patella			L.Shank.Superior			L.Shank.Lateral			L.Shank.Inferior			R.Shank.Superior			R.Shank.Lateral			R.Shank.Inferior			R.Heel			R.Midfoot.Superior			R.Midfoot.Lateral			R.Toe			L.Heel			L.Midfoot.Lateral			L.Midfoot.Superior			L.Toe			L.Elbow			L.Wrist			R.Elbow			R.Wrist			
		X1	Y1	Z1	X2	Y2	Z2	X3	Y3	Z3	X4	Y4	Z4	X5	Y5	Z5	X6	Y6	Z6	X7	Y7	Z7	X8	Y8	Z8	X9	Y9	Z9	X10	Y10	Z10	X11	Y11	Z11	X12	Y12	Z12	X13	Y13	Z13	X14	Y14	Z14	X15	Y15	Z15	X16	Y16	Z16	X17	Y17	Z17	X18	Y18	Z18	X19	Y19	Z19	X20	Y20	Z20	X21	Y21	Z21	X22	Y22	Z22	X23	Y23	Z23	X24	Y24	Z24	X25	Y25	Z25	X26	Y26	Z26	X27	Y27	Z27	X28	Y28	Z28	X29	Y29	Z29	X30	Y30	Z30	X31	Y31	Z31	X32	Y32	Z32	X33	Y33	Z33	

53	48.998285714286	774.888537578560	1016.705076117243	525.362593208416	952.946888348048	1434.966670870552	327.808186940765	1066.041892640772	1361.186005364557	480.007271858176	1002.227330650896	1440.282969165948	660.623342720566	970.349130676207	1497.447445542669	477.485747201109	1007.030199796272	942.670541338858	623.376415679177	972.340092121266	964.831979686129	351.727730210423	1039.937347610396	740.206355606371	590.598538305364	956.924620295613	634.461390492608	650.278905799514	1027.711152932585	580.595464938662	565.185396501977	1025.635073763761	491.646430730108	568.258650540664	1057.960717424789	787.946654752284	379.311965479970	1013.432716813798	661.834824952151	302.310807983804	1119.647107001044	600.703094213452	359.180234030283	1135.530645872455	512.639545827322	351.649823624479	1076.264746604877	442.451982047325	343.737550014721	941.700470621896	383.076766640144	296.445401516404	948.327462402367	252.598738988527	347.445921596867	994.999118573112	404.717079531744	573.857688950667	923.797400287032	302.210069890357	636.007336679609	957.290466324190	207.722042840338	568.013288750837	815.013846081834	46.228134191522	540.942451438145	988.894179423872	97.619660984403	568.489393310450	901.773847100786	37.694792774785	610.914562253195	1109.565870196859	39.868623147575	589.998641478249	769.862965451707	166.114325221632	388.254607398254	827.806771395861	129.605026315542	304.369098714081	931.662513747168	146.334158269651	322.461938373927	1017.353117902000	43.575906606440	287.654506514708	873.083417973061	1083.088568125501	227.473974011845	893.015914820505	824.615413821816	214.848263453798	1022.801865740020	1101.349676689040	794.255955371579	1254.728213948607	1001.887693558682	750.898217635361	
54	49.011714285714	773.003176746029	1017.957375301147	526.505974221578	951.326814999586	1435.712592198249	328.663714009501	1065.710348758724	1361.017686254367	479.434241118128	1004.372263145859	1440.353680744255	660.837028364016	970.510921222916	1497.764381495314	478.170835365869	1005.312079777256	942.648084004252	623.010920926501	969.487956664059	965.782312964086	351.498245099105	1035.841756640361	739.648326269622	589.876193983485	952.302294891023	634.628512455742	650.255516212951	1022.025492757428	580.180109294021	564.794310800003	1019.209487860405	491.571396365518	567.921502735313	1056.001932421810	790.685107314442	379.237294826514	1012.688048151970	664.163001626751	301.900449817412	1119.028960311507	603.888778336118	359.138706929278	1136.803685213955	517.463569245582	351.468113268150	1081.588134022508	445.852246271288	342.924019059991	951.711771577666	377.950820845580	294.955750425806	967.374253492816	247.908114484715	345.385712709181	988.596492777369	404.696961651078	573.713910516758	917.387391590877	302.330697285943	635.994427673919	950.728479645026	207.789498650997	568.015625187961	808.246400777959	46.289002051517	541.017654838435	982.177396406850	97.610334307860	568.535337114588	895.018692909014	37.703483415381	610.973419009478	1102.793659701944	39.841695498225	590.038732283858	795.790840441343	148.167230694777	385.670505242966	856.173185707495	117.175228688096	301.377174297301	958.371424143368	141.416178025910	319.636340161533	1051.443028876576	46.187990193100	283.761619063482	862.496598113829	1086.330633440980	227.796796920491	876.639415735615	827.565318688557	215.699150700380	1035.075107508420	1103.126797364494	795.001078789495	1270.883406309669	1017.192364904092	746.801460226882	
55	49.025142857143	771.142680628601	1019.026051898992	527.463557191970	949.726961204051	1436.342601555547	329.438542307203	1065.301049427548	1360.716261221732	478.821767314532	1006.326611006177	1440.243200785266	660.953718267954	970.556235071743	1497.934338139409	478.783965961164	1003.566727345993	942.493649226639	622.516178619613	966.712920329420	966.533588937591	351.123080906809	1031.802008714128	739.018578379488	589.121291200705	947.792135806073	634.683308014865	650.178799331680	1016.528650760988	579.701492005636	564.400502733336	1012.983041798852	491.413002732871	567.581287516458	1053.586552234924	792.653978555768	379.090747202327	1011.155999192575	665.865372318789	301.394188057880	1117.267705626872	606.112773339711	359.309943675303	1136.827897379533	521.624424487025	351.487513506547	1085.924769987372	448.901120164118	342.212842777261	961.694377620401	372.376156255905	293.206905730877	986.588970692884	243.386064199348	343.289820925889	982.342560032129	404.571369245555	573.537247820685	911.077736216909	302.363865885247	635.922689532839	944.218910061374	207.760708114810	567.979327968223	801.469245206154	46.301231727562	541.073258946449	975.438069022157	97.578865727094	568.545681673371	888.255444372022	37.691964284838	611.020612538268	1096.013123649222	39.817957361392	590.069171237203	822.989812642341	130.459015593231	382.615955143522	885.785324563415	105.146958420356	298.236563574049	985.672931226387	137.016847010270	316.960027377442	1085.915949824626	49.896864434821	280.635242459702	852.234178975997	1089.660355343418	228.103983673289	861.054739114576	830.673973532907	216.659785590248	1047.123647306618	1105.029057573463	795.323305061783	1285.914189920566	1032.601022411401	742.263171665296	
56	49.038571428571	769.326383611783	1019.880416596023	528.242341399116	948.152700094162	1436.833390677225	330.111435413801	1064.803229567340	1360.279569985816	478.174619215688	1008.042409751078	1439.945665049819	660.968551691681	970.473609450466	1497.946696422533	479.308685430995	1001.818743936589	942.201944034637	621.912670118814	964.032857309153	967.052911399750	350.616370562056	1027.864599706889	738.313668482570	588.346794294745	943.439238311785	634.612588578129	650.050499941286	1011.262668373570	579.147724709479	563.999505811562	1006.997845861648	491.151576872775	567.233042278197	1050.747519415199	793.824279022219	378.886739449384	1008.938671902143	666.936501629839	300.758469051927	1114.491983295671	607.393939236367	359.661130086302	1135.748354870418	525.107334291482	351.683860181644	1089.330663033190	451.606448425003	341.624148587541	971.636684671666	366.623379681647	291.222322597024	1005.659696859913	239.334444263240	341.270471248593	976.271531427829	404.324527456079	573.324013029375	904.894422367518	302.298147830205	635.794139701464	937.769087434863	207.625048610987	567.900111654251	794.680746945136	46.258700761187	541.112682982153	968.671761771716	97.524868022134	568.521996977735	881.482831053113	37.658756964875	611.061091713194	1089.223486451766	39.801363911462	590.091618290497	850.962985410056	113.682146223547	379.202535450980	916.140793791694	94.059881823626	295.108460273670	1013.070197130997	133.473512683373	314.606821049276	1120.079659175335	54.848907851990	278.570994189235	842.412424823620	1092.986756527786	228.435472697057	846.260058085743	833.830033199827	217.719026577616	1058.883989108330	1107.023980071200	795.193407469401	1299.795131762254	1047.973720606387	737.331088393619	
